<?xml version="1.0" encoding="UTF-8"?>
<svg xmlns="http://www.w3.org/2000/svg" xmlns:xlink="http://www.w3.org/1999/xlink" width="150px" height="150px" viewBox="0 0 64 64" version="1.1">
<g id="surface1">
<path style=" stroke:none;fill-rule:nonzero;fill:rgb(29.803922%,29.803922%,29.803922%);fill-opacity:1;" d="M 49.601562 32.449219 Z M 49.601562 32.449219 L 32.003906 16.867188 L 14.402344 32.457031 L 14.402344 54.730469 C 14.402344 55.304688 14.867188 55.765625 15.441406 55.765625 L 26.445312 55.765625 L 26.445312 46 C 26.445312 45.425781 26.90625 44.960938 27.480469 44.960938 L 36.519531 44.960938 C 37.097656 44.960938 37.558594 45.425781 37.558594 46 L 37.558594 55.765625 L 48.5625 55.765625 C 49.140625 55.765625 49.601562 55.304688 49.601562 54.730469 Z M 14.402344 32.457031 Z M 14.402344 32.457031 "/>
<path style=" stroke:none;fill-rule:nonzero;fill:rgb(29.803922%,29.803922%,29.803922%);fill-opacity:1;" d="M 31.902344 8.335938 L 6.9375 30.445312 L 9.566406 33.414062 L 32.007812 13.542969 L 54.441406 33.414062 L 57.066406 30.445312 L 32.105469 8.335938 L 32.007812 8.449219 L 31.90625 8.335938 Z M 31.902344 8.335938 "/>
<path style=" stroke:none;fill-rule:nonzero;fill:rgb(29.803922%,29.803922%,29.803922%);fill-opacity:1;" d="M 14.402344 11.507812 L 20.730469 11.507812 L 20.675781 15.257812 L 14.402344 20.925781 Z M 14.402344 11.507812 "/>
</g>
</svg>
